<svg width="7" height="12" viewBox="0 0 7 12" fill="none" xmlns="http://www.w3.org/2000/svg">
<path d="M6.70905 6.69036C6.32111 7.07811 5.69215 7.07811 5.30421 6.69036L0.306472 1.69499C-0.0814626 1.30723 -0.081462 0.678565 0.306473 0.290813C0.694408 -0.0969372 1.32337 -0.0969372 1.71131 0.290813L6.70905 5.28619C7.09698 5.67394 7.09698 6.30261 6.70905 6.69036Z" fill="#8E9CBB"/>
<path d="M6.70905 5.29413C6.32111 4.90637 5.69215 4.90637 5.30421 5.29413L0.290951 10.305C-0.096984 10.6928 -0.0969834 11.3214 0.290951 11.7092C0.678886 12.0969 1.30785 12.0969 1.69579 11.7092L6.70905 6.6983C7.09698 6.31054 7.09698 5.68188 6.70905 5.29413Z" fill="#8E9CBB"/>
</svg>
