<svg width="18" height="21" viewBox="0 0 18 21" fill="none" xmlns="http://www.w3.org/2000/svg">
<path d="M14.3333 7.88475C14.3333 6.2975 13.7714 4.77525 12.7712 3.6529C11.771 2.53054 10.4145 1.90001 9 1.90001C7.58551 1.90001 6.22896 2.53054 5.22876 3.6529C4.22857 4.77525 3.66667 6.2975 3.66667 7.88475C3.66667 14.8669 1 15.8999 1 15.8999H17C17 15.8999 14.3333 14.8669 14.3333 7.88475Z" stroke="#8E9CBB" stroke-width="2" stroke-linecap="round" stroke-linejoin="round"/>
<path d="M11 19C10.7968 19.3031 10.505 19.5547 10.154 19.7295C9.80302 19.9044 9.40506 19.9965 9 19.9965C8.59494 19.9965 8.19698 19.9044 7.84598 19.7295C7.49498 19.5547 7.20325 19.3031 7 19" stroke="#8E9CBB" stroke-width="2" stroke-linecap="round" stroke-linejoin="round"/>
</svg>
